<svg width="60" height="57" viewBox="0 0 60 57" fill="none" xmlns="http://www.w3.org/2000/svg">
<path d="M17.824 17.16C16.928 14.792 14.2933 13.608 9.92 13.608C7.424 13.608 5.51467 14.12 4.192 15.144C2.86933 16.168 2.208 17.6827 2.208 19.688V19.816C2.208 22.3547 3.69067 24.1787 6.656 25.288C12.2667 26.8027 15.072 28.7653 15.072 31.176C15.072 33.6293 13.1733 34.856 9.376 34.856C6.688 34.856 4.74667 33.9387 3.552 32.104L0.96 32.84C1.94133 35.912 4.75733 37.448 9.408 37.448C15.3173 37.448 18.272 35.2827 18.272 30.952C18.272 27.8373 15.68 25.32 10.496 23.4C6.99733 22.4187 5.248 21.0853 5.248 19.4C5.248 18.3547 5.68533 17.5547 6.56 17C7.43467 16.4453 8.66133 16.168 10.24 16.168C13.2267 16.168 14.9013 16.84 15.264 18.184L17.824 17.16ZM38.0028 20.04C36.1041 15.88 33.0321 13.8 28.7868 13.8H21.1388V37H28.3708C35.4961 37 39.0588 32.9573 39.0588 24.872C39.0588 23.2293 38.7068 21.6187 38.0028 20.04ZM24.1148 34.344V16.52H28.7868C29.8108 16.52 30.6641 16.616 31.3468 16.808C34.2908 17.64 35.7628 20.456 35.7628 25.256C35.7628 28.4773 35.1548 30.792 33.9388 32.2C32.7228 33.5867 31.0481 34.2907 28.9148 34.312C28.5948 34.3333 27.6134 34.344 25.9708 34.344H24.1148ZM58.4803 17.16C57.5843 14.792 54.9496 13.608 50.5763 13.608C48.0803 13.608 46.1709 14.12 44.8483 15.144C43.5256 16.168 42.8643 17.6827 42.8643 19.688V19.816C42.8643 22.3547 44.3469 24.1787 47.3123 25.288C52.9229 26.8027 55.7283 28.7653 55.7283 31.176C55.7283 33.6293 53.8296 34.856 50.0323 34.856C47.3443 34.856 45.4029 33.9387 44.2083 32.104L41.6163 32.84C42.5976 35.912 45.4136 37.448 50.0642 37.448C55.9736 37.448 58.9283 35.2827 58.9283 30.952C58.9283 27.8373 56.3363 25.32 51.1523 23.4C47.6536 22.4187 45.9043 21.0853 45.9043 19.4C45.9043 18.3547 46.3416 17.5547 47.2163 17C48.0909 16.4453 49.3176 16.168 50.8963 16.168C53.8829 16.168 55.5576 16.84 55.9203 18.184L58.4803 17.16Z" fill="#4CB481"/>
<rect x="18" y="53" width="25" height="4" rx="2" fill="#4CB481"/>
</svg>
